<?xml version="1.0" encoding="utf-8" ?>
<svg xmlns="http://www.w3.org/2000/svg" xmlns:xlink="http://www.w3.org/1999/xlink" width="24" height="24">
	<defs>
		<clipPath id="clip_0">
			<rect x="-230" y="-261" width="375" height="812" clip-rule="evenodd"/>
		</clipPath>
	</defs>
	<g clip-path="url(#clip_0)">
		<path fill="rgb(255,255,255)" stroke="none" transform="translate(0.199951 0.600006)" d="M22.5743 21.6L23.4059 21.6C23.6436 21.6 24 21.84 23.8812 22.2L23.8812 24L0 24L0 22.2C0 21.84 0.237624 21.6 0.594059 21.6L1.42574 21.6L1.42574 20.4C1.42574 19.8 2.0198 19.2 2.61386 19.2L2.61386 7.2L0.237624 7.2L12.1188 0L24 7.2L21.6238 7.2L21.6238 19.2C22.099 19.32 22.5743 19.8 22.5743 20.4L22.5743 21.6ZM7.36634 9.6C6.65347 9.6 6.17822 10.2 6.17822 10.8L6.17822 19.2L8.55446 19.2L8.55446 10.8C8.55446 10.2 7.9604 9.6 7.36634 9.6ZM10.9307 10.8C10.9307 10.2 11.4059 9.6 12.1188 9.6C12.7129 9.6 13.3069 10.2 13.3069 10.8L13.3069 19.2L10.9307 19.2L10.9307 10.8ZM16.8713 9.6C16.1584 9.6 15.6832 10.2 15.6832 10.8L15.6832 19.2L18.0594 19.2L18.0594 10.8C18.0594 10.2 17.4653 9.6 16.8713 9.6Z" fill-rule="evenodd"/>
	</g>

</svg>