<?xml version="1.0" encoding="utf-8" ?>
<svg xmlns="http://www.w3.org/2000/svg" xmlns:xlink="http://www.w3.org/1999/xlink" width="21" height="24">
	<defs>
		<clipPath id="clip_0">
			<rect x="-134.78979" y="-254.23999" width="363.75" height="787.64001" clip-rule="evenodd"/>
		</clipPath>
	</defs>
	<g clip-path="url(#clip_0)">
		<path fill="rgb(255,255,255)" stroke="none" transform="matrix(0.97 0 0 0.97 0.166016 0.0212708)" d="M0.91 0L19.63 0C20.124 0 20.54 0.4 20.566 0.875L20.566 22.425C20.566 22.85 20.332 23.25 19.942 23.45C19.552 23.65 19.084 23.625 18.72 23.4L17.082 22.35C16.744 22.15 16.328 22.15 15.99 22.35L14.066 23.575C13.858 23.7 13.624 23.775 13.39 23.775C13.182 23.775 12.948 23.7 12.74 23.575L10.816 22.35C10.478 22.15 10.062 22.15 9.724 22.35L7.8 23.575C7.384 23.825 6.864 23.825 6.474 23.575L4.55 22.35C4.212 22.15 3.796 22.15 3.458 22.35L1.846 23.4C1.482 23.625 1.014 23.65 0.624 23.45C0.234 23.25 0 22.85 0 22.425L0 0.875C0 0.4 0.416 0 0.91 0ZM15.366 10.1C15.86 10.05 16.25 9.875 16.536 9.575C16.822 9.275 16.952 8.925 16.952 8.5C16.952 8.375 16.952 8.25 16.926 8.15C16.9 8.05 16.874 7.95 16.848 7.875C16.822 7.775 16.77 7.7 16.718 7.625C16.666 7.55 16.588 7.475 16.536 7.425C16.458 7.35 16.406 7.3 16.302 7.25C16.224 7.2 16.12 7.15 16.042 7.1C15.964 7.05 15.86 7.025 15.73 6.975C15.6 6.925 15.496 6.875 15.392 6.85C15.288 6.8 15.184 6.775 15.028 6.725C14.69 6.625 14.456 6.525 14.326 6.425C14.196 6.35 14.118 6.225 14.118 6.075C14.118 5.925 14.17 5.8 14.3 5.725C14.43 5.65 14.612 5.6 14.82 5.6C15.236 5.6 15.652 5.725 16.068 6C16.12 6.025 16.198 6.025 16.25 5.975L16.77 5.35C16.822 5.3 16.796 5.225 16.744 5.175C16.588 5.05 16.38 4.95 16.172 4.85C15.886 4.75 15.626 4.65 15.366 4.6L15.366 3.875C15.366 3.8 15.314 3.75 15.236 3.75L14.586 3.75C14.508 3.75 14.456 3.8 14.456 3.875L14.456 4.475C13.962 4.525 13.572 4.7 13.286 5C13 5.3 12.87 5.675 12.87 6.1C12.87 6.2 12.87 6.3 12.896 6.4C12.922 6.475 12.948 6.575 12.974 6.65C13 6.725 13.026 6.8 13.078 6.875C13.13 6.95 13.182 7.025 13.234 7.075C13.286 7.125 13.364 7.175 13.416 7.225C13.468 7.275 13.546 7.325 13.624 7.375C13.702 7.425 13.78 7.475 13.858 7.5C13.936 7.525 14.014 7.575 14.118 7.6C14.222 7.65 14.326 7.675 14.404 7.7C14.482 7.725 14.586 7.75 14.69 7.775C14.794 7.8 14.924 7.85 15.002 7.875C15.106 7.9 15.184 7.95 15.262 7.975C15.34 8 15.392 8.05 15.444 8.075C15.496 8.125 15.548 8.15 15.574 8.2L15.652 8.35C15.678 8.4 15.678 8.475 15.678 8.525C15.678 8.675 15.6 8.8 15.47 8.9C15.34 9 15.158 9.05 14.95 9.05C14.716 9.05 14.456 8.975 14.17 8.875C13.936 8.775 13.728 8.65 13.52 8.475C13.468 8.45 13.39 8.45 13.338 8.5L12.792 9.125C12.74 9.175 12.74 9.25 12.792 9.3C13.286 9.725 13.832 9.975 14.456 10.075L14.456 10.7C14.456 10.775 14.508 10.825 14.586 10.825L15.236 10.825C15.314 10.825 15.366 10.775 15.366 10.7L15.366 10.1ZM10.244 4.675L4.394 4.675C4.03 4.675 3.718 4.95 3.718 5.325C3.718 5.7 4.03 5.975 4.394 5.975L10.244 5.975C10.634 5.975 10.92 5.675 10.92 5.325C10.92 4.95 10.608 4.675 10.244 4.675ZM4.394 8.65L10.244 8.65C10.608 8.65 10.92 8.925 10.92 9.3C10.92 9.65 10.634 9.95 10.244 9.95L4.394 9.95C4.03 9.95 3.718 9.675 3.718 9.3C3.718 8.95 4.03 8.65 4.394 8.65ZM4.394 13.9C4.03 13.9 3.718 13.625 3.718 13.25C3.718 12.9 4.004 12.6 4.394 12.6L16.094 12.6C16.458 12.6 16.77 12.875 16.77 13.25C16.744 13.625 16.458 13.9 16.094 13.9L4.394 13.9ZM3.718 17.225C3.718 17.6 4.03 17.875 4.394 17.875L16.094 17.875C16.458 17.875 16.77 17.6 16.77 17.225C16.77 16.85 16.458 16.575 16.094 16.575L4.394 16.575C4.004 16.575 3.718 16.85 3.718 17.225Z" fill-rule="evenodd"/>
	</g>

</svg>