<?xml version="1.0" encoding="utf-8" ?>
<svg xmlns="http://www.w3.org/2000/svg" xmlns:xlink="http://www.w3.org/1999/xlink" width="49" height="26">
	<defs>
		<clipPath id="clip_0">
			<rect x="-250" y="-442" width="375" height="812" clip-rule="evenodd"/>
		</clipPath>
		<linearGradient id="gradient_0" gradientUnits="userSpaceOnUse" x1="0" y1="8.9451876" x2="47.084522" y2="8.9451876">
			<stop offset="0" stop-color="rgb(142,45,226)" stop-opacity="0.80000001"/>
			<stop offset="1" stop-color="rgb(74,0,224)" stop-opacity="0.80000001"/>
		</linearGradient>
	</defs>
	<g clip-path="url(#clip_0)">
		<path fill="url(#gradient_0)" fill-opacity="0.80000001" stroke="none" transform="translate(0 0.5)" d="M42.1 8.7C40.7 8.7 39.3 8.2 38.2 7.2L31.7 1.5C30.6 0.6 29.2 0 27.8 0L8.7 0C6.7 0 4.8 1 3.7 2.7L0.9 7.1Q0 8.75 0 10.4L0 17.7C0 19.5 1.5 21 3.3 21L3.9 21C3.9 17.6 6.6 14.9 10 14.9C13.4 14.9 16.1 17.6 16.1 21L32 21C32 17.6 34.7 14.9 38.1 14.9C41.5 14.9 44.2 17.6 44.2 21L44.8 21C46.6 21 48.1 19.5 48.1 17.7L48.1 14.5C48 11.3 45.4 8.7 42.1 8.7ZM3.5 9.3C3.6 9.2 3.6 9.1 3.7 9L6.5 4.6C7 3.8 7.8 3.4 8.7 3.4L17.9 3.4L17.9 9.3L3.5 9.3ZM20.4 3.4L20.4 9.3L35.6 9.3L29.6 4C29.1 3.6 28.5 3.4 27.9 3.4L20.4 3.4Z" fill-rule="evenodd"/>
	</g>
	<defs>
		<clipPath id="clip_1">
			<rect x="-250" y="-442" width="375" height="812" clip-rule="evenodd"/>
		</clipPath>
		<linearGradient id="gradient_1" gradientUnits="userSpaceOnUse" x1="0" y1="3.3224988" x2="7.6353273" y2="3.3224988">
			<stop offset="0" stop-color="rgb(142,45,226)" stop-opacity="0.80000001"/>
			<stop offset="1" stop-color="rgb(74,0,224)" stop-opacity="0.80000001"/>
		</linearGradient>
	</defs>
	<g clip-path="url(#clip_1)">
		<path fill="url(#gradient_1)" fill-opacity="0.80000001" stroke="none" transform="translate(34.1001 17.6)" d="M3.9 7.8C6.05391 7.8 7.8 6.05391 7.8 3.9C7.8 1.74609 6.05391 0 3.9 0C1.74609 0 0 1.74609 0 3.9C0 6.05391 1.74609 7.8 3.9 7.8Z"/>
	</g>
	<defs>
		<clipPath id="clip_2">
			<rect x="-250" y="-442" width="375" height="812" clip-rule="evenodd"/>
		</clipPath>
		<linearGradient id="gradient_2" gradientUnits="userSpaceOnUse" x1="0" y1="3.3224988" x2="7.6353278" y2="3.3224988">
			<stop offset="0" stop-color="rgb(142,45,226)" stop-opacity="0.80000001"/>
			<stop offset="1" stop-color="rgb(74,0,224)" stop-opacity="0.80000001"/>
		</linearGradient>
	</defs>
	<g clip-path="url(#clip_2)">
		<path fill="url(#gradient_2)" fill-opacity="0.80000001" stroke="none" transform="translate(6.1001 17.6)" d="M3.9 7.8C6.05391 7.8 7.8 6.05391 7.8 3.9C7.8 1.74609 6.05391 0 3.9 0C1.74609 0 0 1.74609 0 3.9C0 6.05391 1.74609 7.8 3.9 7.8Z"/>
	</g>

</svg>