<?xml version="1.0" encoding="utf-8" ?>
<svg xmlns="http://www.w3.org/2000/svg" xmlns:xlink="http://www.w3.org/1999/xlink" width="105" height="75">
	<defs>
		<clipPath id="clip_0">
			<rect x="-44" y="-417" width="375" height="812" clip-rule="evenodd"/>
		</clipPath>
	</defs>
	<g clip-path="url(#clip_0)">
		<path fill="rgb(241,235,251)" stroke="none" transform="translate(21.1826 0)" d="M19.1538 38.1936C29.7322 38.1936 38.3077 29.6436 38.3077 19.0968C38.3077 8.54992 29.7322 0 19.1538 0C8.57547 0 0 8.54992 0 19.0968C0 29.6436 8.57547 38.1936 19.1538 38.1936Z"/>
	</g>
	<defs>
		<clipPath id="clip_1">
			<rect x="-44" y="-417" width="375" height="812" clip-rule="evenodd"/>
		</clipPath>
	</defs>
	<g clip-path="url(#clip_1)">
		<path fill="rgb(241,235,251)" stroke="none" transform="translate(54 45)" d="M14.7644 29.4409C22.9186 29.4409 29.5288 22.8503 29.5288 14.7204C29.5288 6.59056 22.9186 0 14.7644 0C6.61026 0 0 6.59056 0 14.7204C0 22.8503 6.61026 29.4409 14.7644 29.4409Z"/>
	</g>
	<defs>
		<clipPath id="clip_2">
			<rect x="-44" y="-417" width="375" height="812" clip-rule="evenodd"/>
		</clipPath>
	</defs>
	<g clip-path="url(#clip_2)">
		<path fill="rgb(241,235,251)" stroke="none" transform="translate(93 54)" d="M6 12C9.31371 12 12 9.31371 12 6C12 2.68629 9.31371 0 6 0C2.68629 0 0 2.68629 0 6C0 9.31371 2.68629 12 6 12Z"/>
	</g>
	<defs>
		<clipPath id="clip_3">
			<rect x="-44" y="-417" width="375" height="812" clip-rule="evenodd"/>
		</clipPath>
	</defs>
	<g clip-path="url(#clip_3)">
		<path fill="rgb(241,235,251)" stroke="none" transform="translate(0 4)" d="M8 16C12.4183 16 16 12.4183 16 8C16 3.58172 12.4183 0 8 0C3.58172 0 0 3.58172 0 8C0 12.4183 3.58172 16 8 16Z"/>
	</g>
	<defs>
		<clipPath id="clip_4">
			<rect x="-44" y="-417" width="375" height="812" clip-rule="evenodd"/>
		</clipPath>
	</defs>
	<g clip-path="url(#clip_4)">
		<path fill="rgb(241,235,251)" stroke="none" transform="translate(45.9229 4.77417)" d="M25.5385 50.9247C39.643 50.9247 51.0769 39.5248 51.0769 25.4624C51.0769 11.3999 39.643 0 25.5385 0C11.434 0 0 11.3999 0 25.4624C0 39.5248 11.434 50.9247 25.5385 50.9247Z"/>
	</g>
	<defs>
		<clipPath id="clip_5">
			<rect x="-44" y="-417" width="375" height="812" clip-rule="evenodd"/>
		</clipPath>
	</defs>
	<g clip-path="url(#clip_5)">
		<path fill="rgb(241,235,251)" stroke="none" transform="translate(14 19.0968)" d="M25.5385 50.9247C39.643 50.9247 51.0769 39.5248 51.0769 25.4624C51.0769 11.3999 39.643 0 25.5385 0C11.434 0 0 11.3999 0 25.4624C0 39.5248 11.434 50.9247 25.5385 50.9247Z"/>
	</g>
	<defs>
		<clipPath id="clip_6">
			<rect x="-44" y="-417" width="375" height="812" clip-rule="evenodd"/>
		</clipPath>
		<linearGradient id="gradient_0" gradientUnits="userSpaceOnUse" x1="0" y1="13.016161" x2="48.892445" y2="13.016161">
			<stop offset="0" stop-color="rgb(142,45,226)" stop-opacity="0.80000001"/>
			<stop offset="1" stop-color="rgb(74,0,224)" stop-opacity="0.80000001"/>
		</linearGradient>
	</defs>
	<g clip-path="url(#clip_6)">
		<path fill="url(#gradient_0)" fill-opacity="0.80000001" stroke="none" transform="translate(30 19.2214)" d="M48.0556 25.8518L47 25.8518C46.9444 15.2232 39.3333 6.25536 29.1667 4.31786C29.0556 1.9375 27.1111 0 24.7222 0C22.2778 0 20.2778 1.99286 20.2222 4.42857C10.3889 6.64286 3.05556 15.3893 3 25.8518L1.94444 25.8518C0.888889 25.8518 0 26.7375 0 27.7893L0 28.6196C0 29.6714 0.888889 30.5571 1.94444 30.5571L48 30.5571C49.0556 30.5571 49.9444 29.6714 49.9444 28.6196L49.9444 27.7893C50 26.7375 49.1111 25.8518 48.0556 25.8518ZM24.7222 1.10714C26.3889 1.10714 27.7222 2.26964 28 3.875L21.4444 3.875C21.7222 2.325 23.1111 1.10714 24.7222 1.10714ZM22.2778 9.46607C22.7222 9.35536 23.0556 9.3 23.3889 9.24464C23.5932 9.20764 23.7478 9.18918 23.8631 9.18102C24.0572 9.18929 24.1667 9.18929 24.1667 9.18929C24.1667 9.18929 24.0928 9.16475 23.8631 9.18102C23.6914 9.1737 23.4535 9.15991 23.1667 9.13393C22.8889 9.07857 22.5 9.07857 22.0556 9.13393C21.6667 9.13393 21.1667 9.18929 20.6111 9.3L19.7778 9.46607C19.5 9.57679 19.1667 9.63214 18.8889 9.74286C18.2778 9.90893 17.6667 10.1857 17.0556 10.4625C16.5 10.7946 15.8333 11.1268 15.2778 11.5696C14.6667 11.9571 14.1667 12.4554 13.6111 12.9536C13.1667 13.5071 12.6111 14.0054 12.2222 14.6143C11.7778 15.1679 11.4444 15.7768 11.1111 16.3857C10.8333 16.9946 10.5556 17.6036 10.3889 18.2125C10.2778 18.5446 10.2222 18.8214 10.1111 19.0982L9.94444 19.9286C9.83333 20.4821 9.77778 20.9804 9.77778 21.4232L9.77778 22.5304C9.77778 23.1946 9.83333 23.5268 9.83333 23.5268C9.83333 23.5268 9.88889 23.1946 10 22.5857C10.0556 22.2536 10.1111 21.8661 10.2222 21.4786C10.3333 21.0357 10.4444 20.5929 10.6111 20.0946C10.7222 19.8179 10.7778 19.5964 10.8889 19.3196C11 19.0982 11.1111 18.8214 11.2222 18.5446C11.4444 17.9911 11.7778 17.4375 12.0556 16.8839C12.3889 16.3857 12.7222 15.7768 13.1667 15.2786C13.5556 14.725 14.0556 14.2268 14.5 13.7286C15 13.2857 15.5 12.7875 16.0556 12.4C16.5556 11.9571 17.1111 11.625 17.6667 11.2929C18.2778 11.0161 18.7778 10.6839 19.3333 10.4625C19.6111 10.3518 19.8333 10.2411 20.1111 10.1304C20.3889 10.0196 20.6667 9.90893 20.8889 9.85357C21.3889 9.6875 21.8889 9.57679 22.2778 9.46607Z" fill-rule="evenodd"/>
	</g>

</svg>