<?xml version="1.0" encoding="utf-8" ?>
<svg xmlns="http://www.w3.org/2000/svg" xmlns:xlink="http://www.w3.org/1999/xlink" width="2304" height="2016">
	<defs>
		<clipPath id="clip_0">
			<rect x="804" y="652" width="1500" height="3248" clip-rule="evenodd"/>
		</clipPath>
		<linearGradient id="gradient_0" gradientUnits="userSpaceOnUse" x1="0" y1="130.34416" x2="367.08307" y2="130.34416">
			<stop offset="0" stop-color="rgb(142,45,226)" stop-opacity="0.49803922"/>
			<stop offset="1" stop-color="rgb(74,0,224)" stop-opacity="0.49803922"/>
		</linearGradient>
	</defs>
	<g clip-path="url(#clip_0)">
		<path fill="url(#gradient_0)" fill-opacity="0.49803922" stroke="none" transform="matrix(4 0 0 4 804 652)" d="M0 0L375 0L375 306L80 306Q77.9509 306 75.9155 305.907Q73.8802 305.814 71.8627 305.627Q69.8453 305.441 67.8498 305.162Q65.8544 304.883 63.885 304.512Q61.9157 304.14 59.9764 303.678Q58.0371 303.216 56.132 302.663Q54.2268 302.11 52.3595 301.467Q50.4923 300.825 48.6668 300.095Q46.8413 299.365 45.0613 298.548Q43.2813 297.731 41.5504 296.83Q39.8195 295.928 38.1412 294.944Q36.463 293.959 34.8408 292.894Q33.2186 291.828 31.6558 290.684Q30.093 289.54 28.5927 288.319Q27.0925 287.098 25.6578 285.804Q24.2232 284.509 22.8571 283.143Q21.4911 281.777 20.1963 280.342Q18.9016 278.908 17.6809 277.407Q16.4601 275.907 15.3158 274.344Q14.1715 272.781 13.1061 271.159Q12.0406 269.537 11.0561 267.859Q10.0716 266.181 9.17006 264.45Q8.26855 262.719 7.45186 260.939Q6.63517 259.159 5.90497 257.333Q5.17478 255.508 4.53256 253.641Q3.89035 251.773 3.33743 249.868Q2.7845 247.963 2.322 246.024Q1.8595 244.084 1.48836 242.115Q1.11722 240.146 0.838199 238.15Q0.559179 236.155 0.37285 234.137Q0.18652 232.12 0.09326 230.084Q0 228.049 0 226L0 0Z"/>
	</g>
	<defs>
		<clipPath id="clip_1">
			<path d="M804 1556L804 652L2304 652L2304 1876L1124 1876Q1115.8 1876 1107.66 1875.63Q1099.52 1875.25 1091.45 1874.51Q1083.38 1873.76 1075.4 1872.65Q1067.42 1871.53 1059.54 1870.05Q1051.66 1868.56 1043.91 1866.71Q1036.15 1864.86 1028.53 1862.65Q1020.91 1860.44 1013.44 1857.87Q1005.97 1855.3 998.667 1852.38Q991.365 1849.46 984.245 1846.19Q977.125 1842.93 970.202 1839.32Q963.278 1835.71 956.565 1831.78Q949.852 1827.84 943.363 1823.58Q936.875 1819.31 930.623 1814.74Q924.372 1810.16 918.371 1805.28Q912.37 1800.39 906.631 1795.21Q900.893 1790.04 895.429 1784.57Q889.964 1779.11 884.785 1773.37Q879.607 1767.63 874.724 1761.63Q869.841 1755.63 865.263 1749.38Q860.686 1743.13 856.424 1736.64Q852.162 1730.15 848.224 1723.44Q844.286 1716.72 840.68 1709.8Q837.074 1702.88 833.808 1695.76Q830.541 1688.64 827.62 1681.33Q824.699 1674.03 822.13 1666.56Q819.562 1659.09 817.35 1651.47Q815.138 1643.85 813.288 1636.09Q811.438 1628.34 809.953 1620.46Q808.469 1612.58 807.353 1604.6Q806.237 1596.62 805.491 1588.55Q804.746 1580.48 804.373 1572.34Q804 1564.2 804 1556Z" clip-rule="evenodd"/>
		</clipPath>
		<linearGradient id="gradient_1" gradientUnits="userSpaceOnUse" x1="0" y1="214.68451" x2="493.35965" y2="214.68451">
			<stop offset="0" stop-color="rgb(142,45,226)" stop-opacity="0.49803922"/>
			<stop offset="1" stop-color="rgb(74,0,224)" stop-opacity="0.49803922"/>
		</linearGradient>
	</defs>
	<g clip-path="url(#clip_1)">
		<path fill="url(#gradient_1)" fill-opacity="0.49803922" stroke="none" transform="scale(4 4)" d="M252 504C391.176 504 504 391.176 504 252C504 112.824 391.176 0 252 0C112.824 0 0 112.824 0 252C0 391.176 112.824 504 252 504Z"/>
	</g>
	<defs>
		<clipPath id="clip_2">
			<path d="M804 1556L804 652L2304 652L2304 1876L1124 1876Q1115.8 1876 1107.66 1875.63Q1099.52 1875.25 1091.45 1874.51Q1083.38 1873.76 1075.4 1872.65Q1067.42 1871.53 1059.54 1870.05Q1051.66 1868.56 1043.91 1866.71Q1036.15 1864.86 1028.53 1862.65Q1020.91 1860.44 1013.44 1857.87Q1005.97 1855.3 998.667 1852.38Q991.365 1849.46 984.245 1846.19Q977.125 1842.93 970.202 1839.32Q963.278 1835.71 956.565 1831.78Q949.852 1827.84 943.363 1823.58Q936.875 1819.31 930.623 1814.74Q924.372 1810.16 918.371 1805.28Q912.37 1800.39 906.631 1795.21Q900.893 1790.04 895.429 1784.57Q889.964 1779.11 884.785 1773.37Q879.607 1767.63 874.724 1761.63Q869.841 1755.63 865.263 1749.38Q860.686 1743.13 856.424 1736.64Q852.162 1730.15 848.224 1723.44Q844.286 1716.72 840.68 1709.8Q837.074 1702.88 833.808 1695.76Q830.541 1688.64 827.62 1681.33Q824.699 1674.03 822.13 1666.56Q819.562 1659.09 817.35 1651.47Q815.138 1643.85 813.288 1636.09Q811.438 1628.34 809.953 1620.46Q808.469 1612.58 807.353 1604.6Q806.237 1596.62 805.491 1588.55Q804.746 1580.48 804.373 1572.34Q804 1564.2 804 1556Z" clip-rule="evenodd"/>
		</clipPath>
		<linearGradient id="gradient_2" gradientUnits="userSpaceOnUse" x1="0" y1="150.7903" x2="346.52643" y2="150.7903">
			<stop offset="0" stop-color="rgb(142,45,226)" stop-opacity="0.60000002"/>
			<stop offset="1" stop-color="rgb(74,0,224)" stop-opacity="0.60000002"/>
		</linearGradient>
	</defs>
	<g clip-path="url(#clip_2)">
		<path fill="url(#gradient_2)" fill-opacity="0.60000002" stroke="none" transform="matrix(4 0 0 4 300 300)" d="M177 354C274.754 354 354 274.754 354 177C354 79.2456 274.754 0 177 0C79.2456 0 0 79.2456 0 177C0 274.754 79.2456 354 177 354Z"/>
	</g>
	<defs>
		<clipPath id="clip_3">
			<path d="M804 1556L804 652L2304 652L2304 1876L1124 1876Q1115.8 1876 1107.66 1875.63Q1099.52 1875.25 1091.45 1874.51Q1083.38 1873.76 1075.4 1872.65Q1067.42 1871.53 1059.54 1870.05Q1051.66 1868.56 1043.91 1866.71Q1036.15 1864.86 1028.53 1862.65Q1020.91 1860.44 1013.44 1857.87Q1005.97 1855.3 998.667 1852.38Q991.365 1849.46 984.245 1846.19Q977.125 1842.93 970.202 1839.32Q963.278 1835.71 956.565 1831.78Q949.852 1827.84 943.363 1823.58Q936.875 1819.31 930.623 1814.74Q924.372 1810.16 918.371 1805.28Q912.37 1800.39 906.631 1795.21Q900.893 1790.04 895.429 1784.57Q889.964 1779.11 884.785 1773.37Q879.607 1767.63 874.724 1761.63Q869.841 1755.63 865.263 1749.38Q860.686 1743.13 856.424 1736.64Q852.162 1730.15 848.224 1723.44Q844.286 1716.72 840.68 1709.8Q837.074 1702.88 833.808 1695.76Q830.541 1688.64 827.62 1681.33Q824.699 1674.03 822.13 1666.56Q819.562 1659.09 817.35 1651.47Q815.138 1643.85 813.288 1636.09Q811.438 1628.34 809.953 1620.46Q808.469 1612.58 807.353 1604.6Q806.237 1596.62 805.491 1588.55Q804.746 1580.48 804.373 1572.34Q804 1564.2 804 1556Z" clip-rule="evenodd"/>
		</clipPath>
		<linearGradient id="gradient_3" gradientUnits="userSpaceOnUse" x1="0" y1="87.748032" x2="201.65097" y2="87.748032">
			<stop offset="0" stop-color="rgb(142,45,226)" stop-opacity="0.40000001"/>
			<stop offset="1" stop-color="rgb(74,0,224)" stop-opacity="0.40000001"/>
		</linearGradient>
	</defs>
	<g clip-path="url(#clip_3)">
		<path fill="url(#gradient_3)" fill-opacity="0.40000001" stroke="none" transform="matrix(4 0 0 4 596 596)" d="M103 206C159.885 206 206 159.885 206 103C206 46.1147 159.885 0 103 0C46.1147 0 0 46.1147 0 103C0 159.885 46.1147 206 103 206Z"/>
	</g>

</svg>