<?xml version="1.0" encoding="utf-8" ?>
<svg xmlns="http://www.w3.org/2000/svg" xmlns:xlink="http://www.w3.org/1999/xlink" width="14" height="24">
	<defs>
		<clipPath id="clip_0">
			<rect x="-47.719971" y="-251.32001" width="360" height="779.51996" clip-rule="evenodd"/>
		</clipPath>
	</defs>
	<g clip-path="url(#clip_0)">
		<path fill="rgb(255,255,255)" stroke="none" transform="matrix(0.96 0 0 0.96 0.330322 0.226593)" d="M13.5198 22.1463L13.5198 1.88875C13.5198 1.52715 13.4948 1.17669 13.3116 0.84847C13.0201 0.325551 12.4566 0.00568001 11.8652 0.000117038L2.13208 0.000117038C2.11053 0.000117038 2.08903 8.76268e-05 2.06759 5.82917e-05C1.67206 -0.000482931 1.29548 -0.000998214 0.918904 0.183695C0.310928 0.481314 0 1.11549 0 1.76914L0 21.6874C0 21.8682 0.00555229 22.0462 0.00832843 22.227C0.0111046 23.1532 0.752335 23.9098 1.67957 23.9209C2.24054 23.9283 2.80399 23.9258 3.36664 23.9234C3.64765 23.9221 3.92845 23.9209 4.20864 23.9209L11.8097 23.9209C12.0957 23.9209 12.3677 23.8653 12.6259 23.7373C13.1867 23.4647 13.5282 22.8639 13.5365 22.252C13.5337 22.2158 13.5282 22.1797 13.5198 22.1463ZM9.72206 1.88318C9.73039 1.85537 9.73594 1.82199 9.74427 1.79139C9.73309 1.83059 9.73816 1.78463 9.74271 1.74342C9.74494 1.72321 9.74704 1.70415 9.74704 1.69682C9.74704 1.66066 9.74427 1.62451 9.74427 1.58556L9.74427 1.11271L3.79499 1.11271L3.79499 1.69961C3.79499 1.72464 3.79499 1.74967 3.79777 1.77471C3.79777 1.78305 3.79777 1.79139 3.80054 1.79974C3.79777 1.78305 3.79777 1.77471 3.79777 1.77471C3.80054 1.77471 3.81165 1.83868 3.81442 1.84702C3.82275 1.86928 3.8283 1.89431 3.83663 1.91656C3.83663 1.91934 3.83941 1.91934 3.83941 1.92212C3.84218 1.92491 3.84496 1.92769 3.84496 1.93047L3.85051 1.94159C3.85884 1.95828 3.86717 1.97775 3.86995 1.98332C3.87272 1.99166 3.90326 2.03338 3.91714 2.05564C3.90604 2.04451 3.90048 2.04173 3.91714 2.0612C3.92602 2.0701 3.92602 2.0701 3.9214 2.06262C3.92025 2.06075 3.91881 2.05842 3.91714 2.05564C3.92824 2.07232 3.95323 2.10014 3.95323 2.10014C3.95878 2.10848 4.00042 2.14464 4.01708 2.16133C4.01518 2.16019 4.01339 2.1591 4.01177 2.15812C4.00149 2.15188 3.99791 2.14971 4.01708 2.16411C4.02819 2.17246 4.02541 2.16968 4.01708 2.16133C4.03374 2.17246 4.0615 2.19193 4.0615 2.19193C4.06983 2.19471 4.11702 2.21974 4.13923 2.23365C4.12257 2.22809 4.11425 2.22531 4.13923 2.23643C4.14711 2.23906 4.15064 2.24045 4.15071 2.2403L4.13923 2.23365C4.15866 2.23921 4.19198 2.25312 4.19198 2.25312C4.2059 2.25591 4.30302 2.27537 4.2947 2.27815C4.31135 2.28094 4.32523 2.28094 4.33911 2.28094L4.38353 2.28094C5.19777 2.29391 6.01323 2.28959 6.82911 2.28526C7.2372 2.2831 7.6454 2.28094 8.0536 2.28094L9.17238 2.28094C9.20292 2.28094 9.23068 2.28094 9.26122 2.27815C9.25289 2.28094 9.24734 2.28372 9.24734 2.28372C9.24958 2.28372 9.26625 2.2801 9.27845 2.27724C9.28103 2.27683 9.28362 2.27624 9.2862 2.27537C9.28405 2.27591 9.28138 2.27656 9.27845 2.27724C9.27271 2.27815 9.26696 2.27815 9.26122 2.27815C9.26677 2.27815 9.27232 2.27537 9.28343 2.27259C9.3208 2.26189 9.3556 2.25377 9.3903 2.2408L9.38892 2.242L9.39046 2.24074C9.3918 2.24024 9.39314 2.23973 9.39447 2.23921C9.39705 2.23835 9.40016 2.23696 9.40339 2.23536C9.40713 2.23386 9.41092 2.23237 9.41391 2.23087C9.41201 2.2315 9.41025 2.2321 9.40863 2.23267C9.41412 2.22975 9.41932 2.22676 9.42224 2.22531C9.45 2.20584 9.48331 2.18915 9.51385 2.16968C9.51662 2.16689 9.5194 2.16689 9.52218 2.16411C9.5083 2.17802 9.52703 2.16689 9.53988 2.15786C9.55271 2.14882 9.55965 2.14186 9.52218 2.16411L9.52773 2.15855C9.54994 2.13908 9.56937 2.11961 9.59158 2.09736C9.59991 2.08901 9.636 2.04173 9.63877 2.04173C9.64988 2.02504 9.66098 2.00835 9.66931 1.99166C9.67764 1.97775 9.68597 1.96106 9.6943 1.94716C9.6943 1.94716 9.69707 1.94159 9.69985 1.93325C9.70263 1.93047 9.70263 1.92769 9.7054 1.92491C9.71095 1.911 9.71928 1.89153 9.72206 1.88318ZM9.40863 2.23267C9.39805 2.23636 9.39308 2.23869 9.3903 2.2408L9.39046 2.24074C9.39152 2.24 9.393 2.23921 9.39447 2.23921C9.39704 2.23793 9.40019 2.23664 9.40339 2.23536C9.40513 2.2345 9.40689 2.23359 9.40863 2.23267ZM6.77379 21.9349C5.96038 21.9349 5.30244 21.2757 5.30244 20.4607C5.30244 19.6458 5.96038 18.9865 6.77379 18.9865C7.5872 18.9865 8.24515 19.6458 8.24515 20.4607C8.24515 21.2729 7.5872 21.9349 6.77379 21.9349Z" fill-rule="evenodd"/>
	</g>

</svg>