<?xml version="1.0" encoding="utf-8" ?>
<svg xmlns="http://www.w3.org/2000/svg" xmlns:xlink="http://www.w3.org/1999/xlink" width="42" height="32">
	<defs>
		<clipPath id="clip_0">
			<rect x="-76" y="-654" width="375" height="812" clip-rule="evenodd"/>
		</clipPath>
		<linearGradient id="gradient_0" gradientUnits="userSpaceOnUse" x1="0" y1="13.245544" x2="41.113304" y2="13.245544">
			<stop offset="0" stop-color="rgb(142,45,226)" stop-opacity="0.80000001"/>
			<stop offset="1" stop-color="rgb(74,0,224)" stop-opacity="0.80000001"/>
		</linearGradient>
	</defs>
	<g clip-path="url(#clip_0)">
		<path fill="url(#gradient_0)" fill-opacity="0.80000001" stroke="none" transform="translate(0 0.452148)" d="M3.339 0L38.661 0C40.5051 0 42 1.48564 42 3.31826L42 27.7774C42 29.61 40.5051 31.0957 38.661 31.0957L3.339 31.0957C1.49492 31.0957 0 29.61 0 27.7774L0 3.31826C0 2.4382 0.351786 1.59419 0.97797 0.971896C1.60415 0.349601 2.45344 0 3.339 0ZM39.2 9.20348C39.4784 9.20348 39.704 8.97923 39.704 8.70261L39.704 5.8087C39.704 5.53207 39.4784 5.30783 39.2 5.30783L34.923 5.30783C34.6446 5.30783 34.419 5.53207 34.419 5.8087L34.419 8.70261C34.419 8.97923 34.6446 9.20348 34.923 9.20348L39.2 9.20348ZM7.077 9.20348C7.35535 9.20348 7.581 8.97923 7.581 8.70261L7.588 5.82261C7.588 5.54599 7.36235 5.32174 7.084 5.32174L2.8 5.32174C2.52703 5.32163 2.30358 5.53752 2.296 5.8087L2.296 8.70261C2.296 8.97923 2.52165 9.20348 2.8 9.20348L7.077 9.20348ZM26.215 16.647L17.115 22.073C16.7167 22.3117 16.22 22.3184 15.8153 22.0906C15.4106 21.8629 15.1609 21.4361 15.162 20.9739L15.162 10.1217C15.1609 9.65958 15.4106 9.23275 15.8153 9.00501C16.22 8.77727 16.7167 8.78399 17.115 9.02261L26.215 14.4487C26.6044 14.6797 26.8429 15.0971 26.8429 15.5478C26.8429 15.9985 26.6044 16.416 26.215 16.647ZM7.581 16.9948C7.581 17.2714 7.35535 17.4957 7.077 17.4957L2.8 17.4957C2.52165 17.4957 2.296 17.2714 2.296 16.9948L2.296 14.1078C2.296 13.8312 2.52165 13.607 2.8 13.607L7.084 13.607C7.36235 13.607 7.588 13.8312 7.588 14.1078L7.581 16.9948ZM39.704 16.9948C39.704 17.2714 39.4784 17.4957 39.2 17.4957L34.923 17.4957C34.6446 17.4957 34.419 17.2714 34.419 16.9948L34.419 14.1078C34.419 13.8312 34.6446 13.607 34.923 13.607L39.2 13.607C39.4784 13.607 39.704 13.8312 39.704 14.1078L39.704 16.9948ZM7.077 25.7878C7.35535 25.7878 7.581 25.5636 7.581 25.287L7.588 22.4C7.588 22.1234 7.36235 21.8991 7.084 21.8991L2.8 21.8991C2.52165 21.8991 2.296 22.1234 2.296 22.4L2.296 25.287C2.296 25.5636 2.52165 25.7878 2.8 25.7878L7.077 25.7878ZM39.2 25.7878C39.4784 25.7878 39.704 25.5636 39.704 25.287L39.704 22.4C39.704 22.1234 39.4784 21.8991 39.2 21.8991L34.923 21.8991C34.6446 21.8991 34.419 22.1234 34.419 22.4L34.419 25.287C34.419 25.5636 34.6446 25.7878 34.923 25.7878L39.2 25.7878Z" fill-rule="evenodd"/>
	</g>

</svg>