<?xml version="1.0" encoding="utf-8" ?>
<svg xmlns="http://www.w3.org/2000/svg" xmlns:xlink="http://www.w3.org/1999/xlink" width="20" height="27">
	<defs>
		<clipPath id="clip_0">
			<rect x="-325" y="-261" width="375" height="812" clip-rule="evenodd"/>
		</clipPath>
	</defs>
	<g clip-path="url(#clip_0)">
		<path fill="rgb(255,255,255)" stroke="none" d="M0 10.26C0 4.59 4.47368 0 10 0C15.5263 0 20 4.59 20 10.26C20 20.52 10 27 10 27C10 27 0 20.52 0 10.26ZM5.78947 14.688C6.94737 15.66 8.42105 16.2 10 16.2C11.5789 16.2 13.0526 15.66 14.2105 14.688C13.8947 13.014 12.6316 11.664 11 11.286C12.0526 10.908 12.7895 9.828 12.7895 8.64C12.7895 7.074 11.5263 5.778 10 5.778C8.47368 5.778 7.21053 7.074 7.21053 8.64C7.21053 9.828 7.94737 10.854 9 11.286C7.42105 11.718 6.15789 13.014 5.78947 14.688Z" fill-rule="evenodd"/>
	</g>

</svg>