<?xml version="1.0" encoding="utf-8" ?>
<svg xmlns="http://www.w3.org/2000/svg" xmlns:xlink="http://www.w3.org/1999/xlink" width="48" height="48">
	<defs>
		<clipPath id="clip_0">
			<rect x="-280" y="-2820" width="1500" height="3248" clip-rule="evenodd"/>
		</clipPath>
	</defs>
	<g clip-path="url(#clip_0)">
		<path fill="rgb(255,255,255)" stroke="none" transform="matrix(4 0 0 4 17.2803 14.3999)" d="M0.72 1.32C0.78 1.2 0.84 1.08 0.84 0.9L0.84 0.6C0.84 0.42 0.78 0.3 0.72 0.18C0.66 0.06 0.54 0 0.42 0C0.3 0 0.18 0.12 0.12 0.18C0.06 0.3 0 0.42 0 0.6L0 0.9C0 1.08 0.06 1.2 0.12 1.32C0.18 1.44 0.3 1.5 0.42 1.5C0.54 1.5 0.66 1.44 0.72 1.32Z"/>
	</g>
	<defs>
		<clipPath id="clip_1">
			<rect x="-280" y="-2820" width="1500" height="3248" clip-rule="evenodd"/>
		</clipPath>
	</defs>
	<g clip-path="url(#clip_1)">
		<path fill="rgb(255,255,255)" stroke="none" transform="matrix(4 0 0 4 27.3604 27.6001)" d="M0.42 0C0.3 0 0.18 0.06 0.12 0.18C0.06 0.3 0 0.42 0 0.6L0 0.9C0 1.08 0.06 1.2 0.12 1.32C0.18 1.44 0.3 1.5 0.42 1.5C0.6 1.5 0.66 1.44 0.72 1.32C0.78 1.2 0.78 1.08 0.78 0.9L0.78 0.6C0.78 0.42 0.72 0.3 0.66 0.18C0.66 0.06 0.54 0 0.42 0Z"/>
	</g>
	<defs>
		<clipPath id="clip_2">
			<rect x="-280" y="-2820" width="1500" height="3248" clip-rule="evenodd"/>
		</clipPath>
	</defs>
	<g clip-path="url(#clip_2)">
		<path fill="rgb(255,255,255)" stroke="none" transform="matrix(4 0 0 4 1.01563 0)" d="M11.386 4.62L10.726 6L11.266 7.38C11.446 7.68 11.326 8.04 11.026 8.22L9.64598 8.94L9.40598 10.44C9.34598 10.8 9.04598 11.04 8.68598 10.98L7.18598 10.74L6.10598 11.82C5.86598 12.06 5.50598 12.06 5.26598 11.82L4.18598 10.74L2.68598 10.98C2.32598 10.98 2.02598 10.8 1.96598 10.44L1.72598 8.94L0.345984 8.22C0.105984 8.04 -0.0140156 7.68 0.105984 7.38L0.765984 6L0.0459844 4.62C-0.0740156 4.32 0.0459844 3.96 0.345984 3.78L1.72598 3.06L1.96598 1.56C2.02598 1.2 2.32598 0.96 2.68598 1.02L4.18598 1.26L5.38598 0.18C5.62598 -0.06 5.98598 -0.06 6.22598 0.18L7.30598 1.26L8.80598 1.02C9.16598 1.02 9.46598 1.2 9.52598 1.56L9.76598 3.06L11.146 3.78C11.386 3.96 11.506 4.32 11.386 4.62ZM3.34598 4.5C3.34598 4.86 3.46598 5.16 3.64598 5.4C3.82598 5.58 4.12598 5.7 4.48598 5.7C4.84598 5.7 5.14598 5.58 5.32598 5.34C5.50598 5.16 5.62598 4.86 5.62598 4.5L5.62598 4.2C5.62598 3.84 5.56598 3.6 5.32598 3.36C5.14598 3.12 4.84598 3 4.48598 3C4.12598 3 3.82598 3.12 3.64598 3.36C3.46598 3.6 3.34598 3.84 3.34598 4.2L3.34598 4.5ZM4.78598 8.46L4.24598 8.16L6.70598 3.6L7.24598 3.9L4.78598 8.46ZM7.84598 8.64C8.02598 8.46 8.14598 8.16 8.14598 7.8L8.14598 7.5C8.14598 7.2 8.02598 6.9 7.84598 6.66C7.66598 6.42 7.36598 6.3 7.00598 6.3C6.64598 6.3 6.34598 6.42 6.16598 6.66C5.98598 6.9 5.86598 7.14 5.86598 7.5L5.86598 7.8C5.86598 8.1 5.98598 8.4 6.16598 8.64C6.34598 8.88 6.64598 9 7.00598 9C7.36598 9 7.66598 8.82 7.84598 8.64Z" fill-rule="evenodd"/>
	</g>

</svg>