<?xml version="1.0" encoding="utf-8" ?>
<svg xmlns="http://www.w3.org/2000/svg" xmlns:xlink="http://www.w3.org/1999/xlink" width="14" height="11">
	<defs>
		<clipPath id="clip_0">
			<rect x="-69" y="-619" width="375" height="812" clip-rule="evenodd"/>
		</clipPath>
	</defs>
	<g clip-path="url(#clip_0)">
		<path fill="rgb(113,44,226)" stroke="none" d="M0.68569 3.78125L1.29995 3.78125L2.47134 2.2825C2.4142 1.7875 2.14278 1.4025 1.85708 1.11375C1.62851 0.88 1.78565 0.495 2.1285 0.4675C2.98561 0.39875 3.59987 0.61875 4.01415 0.89375C4.94268 0.33 6.09979 0 7.3426 0C10.2425 0 12.6424 1.80125 12.9995 4.13875L13.3138 4.13875C13.6709 4.13875 13.9852 4.41375 13.9995 4.7575C14.0138 5.115 13.7138 5.4175 13.3424 5.4175L12.9995 5.4175C12.8567 6.2975 12.4281 7.095 11.7853 7.755C11.7424 7.79625 11.7139 7.85125 11.6996 7.90625L10.8425 10.7662C10.7996 10.9037 10.6711 11 10.5139 11L9.48538 11C9.32825 11 9.19968 10.89 9.15682 10.7525L8.82826 9.52875C8.79969 9.44625 8.6997 9.39125 8.5997 9.405C8.19971 9.47375 7.77116 9.515 7.3426 9.515C6.91404 9.515 6.48549 9.4875 6.0855 9.405C5.98551 9.3775 5.88551 9.4325 5.85694 9.52875L5.52838 10.7525C5.48552 10.9037 5.35696 11 5.19982 11L4.17128 11C4.01415 11 3.88558 10.9037 3.84272 10.7662L3.1856 8.5525C3.15703 8.45625 3.07132 8.36 2.97132 8.31875C1.62851 7.7275 0.785687 7.095 0.35713 6.72375C0.128567 6.5175 0 6.2425 0 5.94L0 4.44125C0 4.07 0.314275 3.78125 0.68569 3.78125ZM2.88561 3.86375C2.88561 4.18 3.15703 4.44125 3.48559 4.44125C3.81415 4.44125 4.08557 4.18 4.08557 3.86375C4.08557 3.5475 3.81415 3.28625 3.48559 3.28625C3.15703 3.28625 2.88561 3.5475 2.88561 3.86375Z" fill-rule="evenodd"/>
	</g>

</svg>