<?xml version="1.0" encoding="utf-8" ?>
<svg xmlns="http://www.w3.org/2000/svg" xmlns:xlink="http://www.w3.org/1999/xlink" width="18" height="18">
	<defs>
		<clipPath id="clip_0">
			<rect x="-31.789795" y="-183.23999" width="363.75" height="787.64001" clip-rule="evenodd"/>
		</clipPath>
	</defs>
	<g clip-path="url(#clip_0)">
		<path fill="rgb(113,44,226)" stroke="none" transform="matrix(0.97 0 0 0.97 0.219971 0.0899963)" d="M11.71 11L12.5 11L17.49 16L16 17.49L11 12.5L11 11.71L10.73 11.43C9.59 12.41 8.11 13 6.5 13C2.91 13 0 10.09 0 6.5C0 2.91 2.91 0 6.5 0C10.09 0 13 2.91 13 6.5C13 8.11 12.41 9.59 11.43 10.73L11.71 11ZM2 6.5C2 8.99 4.01 11 6.5 11C8.99 11 11 8.99 11 6.5C11 4.01 8.99 2 6.5 2C4.01 2 2 4.01 2 6.5Z" fill-rule="evenodd"/>
	</g>

</svg>