<?xml version="1.0" encoding="utf-8" ?>
<svg xmlns="http://www.w3.org/2000/svg" xmlns:xlink="http://www.w3.org/1999/xlink" width="678" height="665">
	<defs>
		<clipPath id="clip_0">
			<rect x="84" y="-1916" width="1500" height="3248" clip-rule="evenodd"/>
		</clipPath>
	</defs>
	<g clip-path="url(#clip_0)">
		<path fill="rgb(255,255,255)" stroke="none" transform="matrix(4 0 0 4 204 196)" d="M34 68C52.7777 68 68 52.7777 68 34C68 15.2223 52.7777 0 34 0C15.2223 0 0 15.2223 0 34C0 52.7777 15.2223 68 34 68Z"/>
	</g>
	<defs>
		<clipPath id="clip_1">
			<path d="M476 332C476 407.111 415.111 468 340 468C264.889 468 204 407.111 204 332C204 256.889 264.889 196 340 196C415.111 196 476 256.889 476 332Z" clip-rule="evenodd"/>
		</clipPath>
		<linearGradient id="gradient_0" gradientUnits="userSpaceOnUse" x1="0" y1="40.892288" x2="97.199997" y2="40.892288">
			<stop offset="0" stop-color="rgb(142,45,226)" stop-opacity="0.64705884"/>
			<stop offset="0.97888821" stop-color="rgb(74,0,224)" stop-opacity="0.64705884"/>
			<stop offset="1" stop-color="rgb(74,0,224)" stop-opacity="0.64705884"/>
		</linearGradient>
	</defs>
	<g clip-path="url(#clip_1)">
		<path fill="url(#gradient_0)" fill-opacity="0.64705884" stroke="none" transform="matrix(1.87789 3.53179 -3.53179 1.87789 380.91 37.8359)" d="M48.6 96C75.441 96 97.2 74.5097 97.2 48C97.2 21.4903 75.441 0 48.6 0C21.759 0 0 21.4903 0 48C0 74.5097 21.759 96 48.6 96Z"/>
	</g>
	<defs>
		<clipPath id="clip_2">
			<path d="M476 332C476 407.111 415.111 468 340 468C264.889 468 204 407.111 204 332C204 256.889 264.889 196 340 196C415.111 196 476 256.889 476 332Z" clip-rule="evenodd"/>
		</clipPath>
		<linearGradient id="gradient_1" gradientUnits="userSpaceOnUse" x1="0" y1="36.348698" x2="86.400002" y2="36.348698">
			<stop offset="0" stop-color="rgb(142,45,226)" stop-opacity="0.64705884"/>
			<stop offset="0.97888821" stop-color="rgb(74,0,224)" stop-opacity="0.64705884"/>
			<stop offset="1" stop-color="rgb(74,0,224)" stop-opacity="0.64705884"/>
		</linearGradient>
	</defs>
	<g clip-path="url(#clip_2)">
		<path fill="url(#gradient_1)" fill-opacity="0.64705884" stroke="none" transform="matrix(1.87789 3.53179 -3.53179 1.87789 364.477 198.791)" d="M43.2 85.3333C67.0587 85.3333 86.4 66.2308 86.4 42.6667C86.4 19.1025 67.0587 0 43.2 0C19.3413 0 0 19.1025 0 42.6667C0 66.2308 19.3413 85.3333 43.2 85.3333Z"/>
	</g>
	<defs>
		<clipPath id="clip_3">
			<path d="M476 332C476 407.111 415.111 468 340 468C264.889 468 204 407.111 204 332C204 256.889 264.889 196 340 196C415.111 196 476 256.889 476 332Z" clip-rule="evenodd"/>
		</clipPath>
		<linearGradient id="gradient_2" gradientUnits="userSpaceOnUse" x1="0" y1="36.348701" x2="86.400002" y2="36.348701">
			<stop offset="0" stop-color="rgb(142,45,226)" stop-opacity="0.64705884"/>
			<stop offset="0.97888821" stop-color="rgb(74,0,224)" stop-opacity="0.64705884"/>
			<stop offset="1" stop-color="rgb(74,0,224)" stop-opacity="0.64705884"/>
		</linearGradient>
	</defs>
	<g clip-path="url(#clip_3)">
		<path fill="url(#gradient_2)" fill-opacity="0.64705884" stroke="none" transform="matrix(1.87789 3.53179 -3.53179 1.87789 463.337 21.1907)" d="M43.2 85.3333C67.0587 85.3333 86.4 66.2308 86.4 42.6667C86.4 19.1025 67.0587 0 43.2 0C19.3413 0 0 19.1025 0 42.6667C0 66.2308 19.3413 85.3333 43.2 85.3333Z"/>
	</g>

</svg>