<?xml version="1.0" encoding="utf-8" ?>
<svg xmlns="http://www.w3.org/2000/svg" xmlns:xlink="http://www.w3.org/1999/xlink" width="16" height="10">
	<defs>
		<clipPath id="clip_0">
			<rect x="-75" y="-445" width="375" height="812" clip-rule="evenodd"/>
		</clipPath>
	</defs>
	<g clip-path="url(#clip_0)">
		<path fill="rgb(255,255,255)" stroke="none" d="M2 0L14 0Q14.1025 0 14.2034 0.00932124Q14.3044 0.0186425 14.4029 0.037209Q14.5014 0.0557754 14.5967 0.0834357Q14.692 0.111096 14.7833 0.147624Q14.8747 0.184153 14.9612 0.229252Q15.0478 0.27435 15.129 0.327651Q15.2101 0.380953 15.2852 0.442021Q15.3602 0.50309 15.4286 0.571429Q15.4969 0.639767 15.558 0.714818Q15.6191 0.789868 15.6724 0.871019Q15.7257 0.95217 15.7708 1.03876Q15.8158 1.12535 15.8524 1.21667Q15.8889 1.30799 15.9166 1.4033Q15.9442 1.49861 15.9628 1.59713Q15.9814 1.69564 15.9907 1.79657Q16 1.89749 16 2L16 8Q16 8.10251 15.9907 8.20343Q15.9814 8.30436 15.9628 8.40287Q15.9442 8.50139 15.9166 8.5967Q15.8889 8.69201 15.8524 8.78333Q15.8158 8.87465 15.7708 8.96124Q15.7257 9.04783 15.6724 9.12898Q15.6191 9.21013 15.558 9.28518Q15.4969 9.36023 15.4286 9.42857Q15.3602 9.49691 15.2852 9.55798Q15.2101 9.61905 15.129 9.67235Q15.0478 9.72565 14.9612 9.77075Q14.8747 9.81585 14.7833 9.85238Q14.692 9.8889 14.5967 9.91656Q14.5014 9.94423 14.4029 9.96279Q14.3044 9.98136 14.2034 9.99068Q14.1025 10 14 10L2 10Q1.89749 10 1.79657 9.99068Q1.69564 9.98136 1.59713 9.96279Q1.49861 9.94423 1.4033 9.91656Q1.30799 9.8889 1.21667 9.85238Q1.12535 9.81585 1.03876 9.77075Q0.95217 9.72565 0.871019 9.67235Q0.789868 9.61905 0.714818 9.55798Q0.639767 9.49691 0.571429 9.42857Q0.50309 9.36023 0.442021 9.28518Q0.380953 9.21013 0.327651 9.12898Q0.27435 9.04783 0.229252 8.96124Q0.184153 8.87465 0.147624 8.78333Q0.111096 8.69201 0.0834357 8.5967Q0.0557754 8.50139 0.037209 8.40287Q0.0186425 8.30436 0.00932124 8.20343Q0 8.10251 0 8L0 2Q0 1.89749 0.00932124 1.79657Q0.0186425 1.69564 0.037209 1.59713Q0.0557754 1.49861 0.0834357 1.4033Q0.111096 1.30799 0.147624 1.21667Q0.184153 1.12535 0.229252 1.03876Q0.27435 0.95217 0.327651 0.871019Q0.380953 0.789868 0.442021 0.714818Q0.50309 0.639767 0.571429 0.571429Q0.639767 0.50309 0.714818 0.442021Q0.789868 0.380953 0.871019 0.327651Q0.95217 0.27435 1.03876 0.229252Q1.12535 0.184153 1.21667 0.147624Q1.30799 0.111096 1.4033 0.0834357Q1.49861 0.0557754 1.59713 0.037209Q1.69564 0.0186425 1.79657 0.00932124Q1.89749 0 2 0Z"/>
	</g>
	<defs>
		<clipPath id="clip_1">
			<path d="M14 0L2 0Q1.89749 0 1.79657 0.00932124Q1.69564 0.0186425 1.59713 0.037209Q1.49861 0.0557754 1.4033 0.0834357Q1.30799 0.111096 1.21667 0.147624Q1.12535 0.184153 1.03876 0.229252Q0.95217 0.27435 0.871019 0.327651Q0.789868 0.380953 0.714818 0.442021Q0.639767 0.50309 0.571429 0.571429Q0.50309 0.639767 0.442021 0.714818Q0.380953 0.789868 0.327651 0.871019Q0.27435 0.95217 0.229252 1.03876Q0.184153 1.12535 0.147624 1.21667Q0.111096 1.30799 0.0834357 1.4033Q0.0557754 1.49861 0.037209 1.59713Q0.0186425 1.69564 0.00932124 1.79657Q0 1.89749 0 2L0 8Q0 8.10251 0.00932124 8.20343Q0.0186425 8.30436 0.037209 8.40287Q0.0557754 8.50139 0.0834357 8.5967Q0.111096 8.69201 0.147624 8.78333Q0.184153 8.87465 0.229252 8.96124Q0.27435 9.04783 0.327651 9.12898Q0.380953 9.21013 0.442021 9.28518Q0.50309 9.36023 0.571429 9.42857Q0.639767 9.49691 0.714818 9.55798Q0.789868 9.61905 0.871019 9.67235Q0.95217 9.72565 1.03876 9.77075Q1.12535 9.81585 1.21667 9.85238Q1.30799 9.8889 1.4033 9.91656Q1.49861 9.94423 1.59713 9.96279Q1.69564 9.98136 1.79657 9.99068Q1.89749 10 2 10L14 10Q14.1025 10 14.2034 9.99068Q14.3044 9.98136 14.4029 9.96279Q14.5014 9.94423 14.5967 9.91656Q14.692 9.8889 14.7833 9.85238Q14.8747 9.81585 14.9612 9.77075Q15.0478 9.72565 15.129 9.67235Q15.2101 9.61905 15.2852 9.55798Q15.3602 9.49691 15.4286 9.42857Q15.4969 9.36023 15.558 9.28518Q15.6191 9.21013 15.6724 9.12898Q15.7257 9.04783 15.7708 8.96124Q15.8158 8.87465 15.8524 8.78333Q15.8889 8.69201 15.9166 8.5967Q15.9442 8.50139 15.9628 8.40287Q15.9814 8.30436 15.9907 8.20343Q16 8.10251 16 8L16 2Q16 1.89749 15.9907 1.79657Q15.9814 1.69564 15.9628 1.59713Q15.9442 1.49861 15.9166 1.4033Q15.8889 1.30799 15.8524 1.21667Q15.8158 1.12535 15.7708 1.03876Q15.7257 0.95217 15.6724 0.871019Q15.6191 0.789868 15.558 0.714818Q15.4969 0.639767 15.4286 0.571429Q15.3602 0.50309 15.2852 0.442021Q15.2101 0.380953 15.129 0.327651Q15.0478 0.27435 14.9612 0.229252Q14.8747 0.184153 14.7833 0.147624Q14.692 0.111096 14.5967 0.0834357Q14.5014 0.0557754 14.4029 0.037209Q14.3044 0.0186425 14.2034 0.00932124Q14.1025 0 14 0Z" clip-rule="evenodd"/>
		</clipPath>
	</defs>
	<g clip-path="url(#clip_1)">
		<path fill="none" stroke="rgb(113,44,226)" stroke-width="2" stroke-linecap="round" stroke-linejoin="round" d="M2 0L14 0Q14.1025 0 14.2034 0.00932124Q14.3044 0.0186425 14.4029 0.037209Q14.5014 0.0557754 14.5967 0.0834357Q14.692 0.111096 14.7833 0.147624Q14.8747 0.184153 14.9612 0.229252Q15.0478 0.27435 15.129 0.327651Q15.2101 0.380953 15.2852 0.442021Q15.3602 0.50309 15.4286 0.571429Q15.4969 0.639767 15.558 0.714818Q15.6191 0.789868 15.6724 0.871019Q15.7257 0.95217 15.7708 1.03876Q15.8158 1.12535 15.8524 1.21667Q15.8889 1.30799 15.9166 1.4033Q15.9442 1.49861 15.9628 1.59713Q15.9814 1.69564 15.9907 1.79657Q16 1.89749 16 2L16 8Q16 8.10251 15.9907 8.20343Q15.9814 8.30436 15.9628 8.40287Q15.9442 8.50139 15.9166 8.5967Q15.8889 8.69201 15.8524 8.78333Q15.8158 8.87465 15.7708 8.96124Q15.7257 9.04783 15.6724 9.12898Q15.6191 9.21013 15.558 9.28518Q15.4969 9.36023 15.4286 9.42857Q15.3602 9.49691 15.2852 9.55798Q15.2101 9.61905 15.129 9.67235Q15.0478 9.72565 14.9612 9.77075Q14.8747 9.81585 14.7833 9.85238Q14.692 9.8889 14.5967 9.91656Q14.5014 9.94423 14.4029 9.96279Q14.3044 9.98136 14.2034 9.99068Q14.1025 10 14 10L2 10Q1.89749 10 1.79657 9.99068Q1.69564 9.98136 1.59713 9.96279Q1.49861 9.94423 1.4033 9.91656Q1.30799 9.8889 1.21667 9.85238Q1.12535 9.81585 1.03876 9.77075Q0.95217 9.72565 0.871019 9.67235Q0.789868 9.61905 0.714818 9.55798Q0.639767 9.49691 0.571429 9.42857Q0.50309 9.36023 0.442021 9.28518Q0.380953 9.21013 0.327651 9.12898Q0.27435 9.04783 0.229252 8.96124Q0.184153 8.87465 0.147624 8.78333Q0.111096 8.69201 0.0834357 8.5967Q0.0557754 8.50139 0.037209 8.40287Q0.0186425 8.30436 0.00932124 8.20343Q0 8.10251 0 8L0 2Q0 1.89749 0.00932124 1.79657Q0.0186425 1.69564 0.037209 1.59713Q0.0557754 1.49861 0.0834357 1.4033Q0.111096 1.30799 0.147624 1.21667Q0.184153 1.12535 0.229252 1.03876Q0.27435 0.95217 0.327651 0.871019Q0.380953 0.789868 0.442021 0.714818Q0.50309 0.639767 0.571429 0.571429Q0.639767 0.50309 0.714818 0.442021Q0.789868 0.380953 0.871019 0.327651Q0.95217 0.27435 1.03876 0.229252Q1.12535 0.184153 1.21667 0.147624Q1.30799 0.111096 1.4033 0.0834357Q1.49861 0.0557754 1.59713 0.037209Q1.69564 0.0186425 1.79657 0.00932124Q1.89749 0 2 0Z"/>
	</g>
	<defs>
		<clipPath id="clip_2">
			<rect x="-75" y="-445" width="375" height="812" clip-rule="evenodd"/>
		</clipPath>
	</defs>
	<g clip-path="url(#clip_2)">
		<path fill="rgb(113,44,226)" stroke="none" transform="translate(6 3)" d="M2 4C3.10457 4 4 3.10457 4 2C4 0.895431 3.10457 0 2 0C0.895431 0 0 0.895431 0 2C0 3.10457 0.895431 4 2 4Z"/>
	</g>

</svg>