<?xml version="1.0" encoding="utf-8" ?>
<svg xmlns="http://www.w3.org/2000/svg" xmlns:xlink="http://www.w3.org/1999/xlink" width="2304" height="2016">
	<defs>
		<clipPath id="clip_0">
			<rect x="804" y="652" width="1500" height="3248" clip-rule="evenodd"/>
		</clipPath>
		<linearGradient id="gradient_0" gradientUnits="userSpaceOnUse" x1="0" y1="62.190353" x2="367.08307" y2="62.190353">
			<stop offset="0" stop-color="rgb(142,45,226)" stop-opacity="0.49803922"/>
			<stop offset="1" stop-color="rgb(74,0,224)" stop-opacity="0.49803922"/>
		</linearGradient>
	</defs>
	<g clip-path="url(#clip_0)">
		<path fill="url(#gradient_0)" fill-opacity="0.49803922" stroke="none" transform="matrix(4 0 0 4 804 652)" d="M0 0L375 0L375 146L50 146Q48.7193 146 47.4472 145.942Q46.1751 145.883 44.9142 145.767Q43.6533 145.651 42.4061 145.476Q41.159 145.302 39.9281 145.07Q38.6973 144.838 37.4853 144.549Q36.2732 144.26 35.0825 143.914Q33.8917 143.569 32.7247 143.167Q31.5577 142.766 30.4167 142.309Q29.2758 141.853 28.1633 141.343Q27.0508 140.832 25.969 140.269Q24.8872 139.705 23.8383 139.09Q22.7893 138.475 21.7755 137.809Q20.7616 137.143 19.7849 136.428Q18.8081 135.712 17.8704 134.949Q16.9328 134.187 16.0361 133.377Q15.1395 132.568 14.2857 131.714Q13.4319 130.861 12.6227 129.964Q11.8135 129.067 11.0505 128.13Q10.2876 127.192 9.57239 126.215Q8.85721 125.238 8.19128 124.225Q7.52536 123.211 6.91005 122.162Q6.29473 121.113 5.73129 120.031Q5.16784 118.949 4.65741 117.837Q4.14698 116.724 3.69061 115.583Q3.23424 114.442 2.83285 113.275Q2.43147 112.108 2.08589 110.918Q1.74032 109.727 1.45125 108.515Q1.16219 107.303 0.930224 106.072Q0.698261 104.841 0.523874 103.594Q0.349487 102.347 0.233031 101.086Q0.116575 99.8249 0.0582875 98.5528Q0 97.2807 0 96L0 0Z"/>
	</g>
	<defs>
		<clipPath id="clip_1">
			<path d="M804 1036L804 652L2304 652L2304 1236L1004 1236Q998.877 1236 993.789 1235.77Q988.701 1235.53 983.657 1235.07Q978.613 1234.6 973.625 1233.9Q968.636 1233.21 963.713 1232.28Q958.789 1231.35 953.941 1230.19Q949.093 1229.04 944.33 1227.66Q939.567 1226.27 934.899 1224.67Q930.231 1223.06 925.667 1221.24Q921.103 1219.41 916.653 1217.37Q912.203 1215.33 907.876 1213.07Q903.549 1210.82 899.353 1208.36Q895.158 1205.9 891.102 1203.23Q887.047 1200.57 883.14 1197.71Q879.233 1194.85 875.482 1191.8Q871.731 1188.75 868.145 1185.51Q864.558 1182.27 861.143 1178.86Q857.728 1175.44 854.491 1171.86Q851.254 1168.27 848.202 1164.52Q845.15 1160.77 842.29 1156.86Q839.429 1152.95 836.765 1148.9Q834.102 1144.84 831.64 1140.65Q829.179 1136.45 826.925 1132.12Q824.672 1127.8 822.63 1123.35Q820.588 1118.9 818.763 1114.33Q816.937 1109.77 815.332 1105.1Q813.726 1100.43 812.344 1095.67Q810.961 1090.91 809.805 1086.06Q808.649 1081.21 807.721 1076.29Q806.793 1071.36 806.096 1066.38Q805.398 1061.39 804.932 1056.34Q804.466 1051.3 804.233 1046.21Q804 1041.12 804 1036Z" clip-rule="evenodd"/>
		</clipPath>
		<linearGradient id="gradient_1" gradientUnits="userSpaceOnUse" x1="0" y1="214.68451" x2="493.35965" y2="214.68451">
			<stop offset="0" stop-color="rgb(142,45,226)" stop-opacity="0.49803922"/>
			<stop offset="1" stop-color="rgb(74,0,224)" stop-opacity="0.49803922"/>
		</linearGradient>
	</defs>
	<g clip-path="url(#clip_1)">
		<path fill="url(#gradient_1)" fill-opacity="0.49803922" stroke="none" transform="scale(4 4)" d="M252 504C391.176 504 504 391.176 504 252C504 112.824 391.176 0 252 0C112.824 0 0 112.824 0 252C0 391.176 112.824 504 252 504Z"/>
	</g>
	<defs>
		<clipPath id="clip_2">
			<path d="M804 1036L804 652L2304 652L2304 1236L1004 1236Q998.877 1236 993.789 1235.77Q988.701 1235.53 983.657 1235.07Q978.613 1234.6 973.625 1233.9Q968.636 1233.21 963.713 1232.28Q958.789 1231.35 953.941 1230.19Q949.093 1229.04 944.33 1227.66Q939.567 1226.27 934.899 1224.67Q930.231 1223.06 925.667 1221.24Q921.103 1219.41 916.653 1217.37Q912.203 1215.33 907.876 1213.07Q903.549 1210.82 899.353 1208.36Q895.158 1205.9 891.102 1203.23Q887.047 1200.57 883.14 1197.71Q879.233 1194.85 875.482 1191.8Q871.731 1188.75 868.145 1185.51Q864.558 1182.27 861.143 1178.86Q857.728 1175.44 854.491 1171.86Q851.254 1168.27 848.202 1164.52Q845.15 1160.77 842.29 1156.86Q839.429 1152.95 836.765 1148.9Q834.102 1144.84 831.64 1140.65Q829.179 1136.45 826.925 1132.12Q824.672 1127.8 822.63 1123.35Q820.588 1118.9 818.763 1114.33Q816.937 1109.77 815.332 1105.1Q813.726 1100.43 812.344 1095.67Q810.961 1090.91 809.805 1086.06Q808.649 1081.21 807.721 1076.29Q806.793 1071.36 806.096 1066.38Q805.398 1061.39 804.932 1056.34Q804.466 1051.3 804.233 1046.21Q804 1041.12 804 1036Z" clip-rule="evenodd"/>
		</clipPath>
		<linearGradient id="gradient_2" gradientUnits="userSpaceOnUse" x1="0" y1="150.7903" x2="346.52643" y2="150.7903">
			<stop offset="0" stop-color="rgb(142,45,226)" stop-opacity="0.60000002"/>
			<stop offset="1" stop-color="rgb(74,0,224)" stop-opacity="0.60000002"/>
		</linearGradient>
	</defs>
	<g clip-path="url(#clip_2)">
		<path fill="url(#gradient_2)" fill-opacity="0.60000002" stroke="none" transform="matrix(4 0 0 4 300 300)" d="M177 354C274.754 354 354 274.754 354 177C354 79.2456 274.754 0 177 0C79.2456 0 0 79.2456 0 177C0 274.754 79.2456 354 177 354Z"/>
	</g>
	<defs>
		<clipPath id="clip_3">
			<path d="M804 1036L804 652L2304 652L2304 1236L1004 1236Q998.877 1236 993.789 1235.77Q988.701 1235.53 983.657 1235.07Q978.613 1234.6 973.625 1233.9Q968.636 1233.21 963.713 1232.28Q958.789 1231.35 953.941 1230.19Q949.093 1229.04 944.33 1227.66Q939.567 1226.27 934.899 1224.67Q930.231 1223.06 925.667 1221.24Q921.103 1219.41 916.653 1217.37Q912.203 1215.33 907.876 1213.07Q903.549 1210.82 899.353 1208.36Q895.158 1205.9 891.102 1203.23Q887.047 1200.57 883.14 1197.71Q879.233 1194.85 875.482 1191.8Q871.731 1188.75 868.145 1185.51Q864.558 1182.27 861.143 1178.86Q857.728 1175.44 854.491 1171.86Q851.254 1168.27 848.202 1164.52Q845.15 1160.77 842.29 1156.86Q839.429 1152.95 836.765 1148.9Q834.102 1144.84 831.64 1140.65Q829.179 1136.45 826.925 1132.12Q824.672 1127.8 822.63 1123.35Q820.588 1118.9 818.763 1114.33Q816.937 1109.77 815.332 1105.1Q813.726 1100.43 812.344 1095.67Q810.961 1090.91 809.805 1086.06Q808.649 1081.21 807.721 1076.29Q806.793 1071.36 806.096 1066.38Q805.398 1061.39 804.932 1056.34Q804.466 1051.3 804.233 1046.21Q804 1041.12 804 1036Z" clip-rule="evenodd"/>
		</clipPath>
		<linearGradient id="gradient_3" gradientUnits="userSpaceOnUse" x1="0" y1="87.748032" x2="206" y2="87.748032">
			<stop offset="0" stop-color="rgb(142,45,226)" stop-opacity="0.40000001"/>
			<stop offset="0.97888821" stop-color="rgb(74,0,224)" stop-opacity="0.40000001"/>
			<stop offset="1" stop-color="rgb(74,0,224)" stop-opacity="0.40000001"/>
		</linearGradient>
	</defs>
	<g clip-path="url(#clip_3)">
		<path fill="url(#gradient_3)" fill-opacity="0.40000001" stroke="none" transform="matrix(4 0 0 4 596 596)" d="M103 206C159.885 206 206 159.885 206 103C206 46.1147 159.885 0 103 0C46.1147 0 0 46.1147 0 103C0 159.885 46.1147 206 103 206Z"/>
	</g>

</svg>