<?xml version="1.0" encoding="utf-8" ?>
<svg xmlns="http://www.w3.org/2000/svg" xmlns:xlink="http://www.w3.org/1999/xlink" width="15" height="17">
	<defs>
		<clipPath id="clip_0">
			<rect x="-44" y="-80" width="375" height="812" clip-rule="evenodd"/>
		</clipPath>
	</defs>
	<g clip-path="url(#clip_0)">
		<path fill="rgb(113,44,226)" stroke="none" transform="translate(0.0715332 0.0885468)" d="M7.42857 10.2354C10.2679 10.2354 12.5893 7.95104 12.5893 5.11771C12.5893 2.30208 10.2857 0 7.42857 0C4.57143 0 2.26786 2.30208 2.26786 5.11771C2.26786 7.93333 4.58929 10.2354 7.42857 10.2354ZM14.8571 14.5208L14.8571 16.026C14.8571 16.4688 14.5 16.8229 14.0536 16.8229L0.803571 16.8229C0.357143 16.8229 0 16.4688 0 16.026L0 14.5208C0 12.9625 1.28571 11.6875 2.85714 11.6875L12 11.6875C13.5714 11.6875 14.8571 12.9625 14.8571 14.5208Z" fill-rule="evenodd"/>
	</g>

</svg>